<mxfile host="app.diagrams.net" modified="2023-07-05T02:09:30.824Z" agent="Mozilla/5.0 (Windows NT 10.0; Win64; x64) AppleWebKit/537.36 (KHTML, like Gecko) Chrome/114.0.0.0 Safari/537.36" etag="FuPLfAusIsKhPC5CXrmb" version="21.3.7" type="device">
  <diagram name="페이지-1" id="nNP0YyndLunDAq4LBipd">
    <mxGraphModel dx="1235" dy="684" grid="1" gridSize="10" guides="1" tooltips="1" connect="1" arrows="1" fold="1" page="1" pageScale="1" pageWidth="827" pageHeight="1169" math="0" shadow="0">
      <root>
        <mxCell id="0" />
        <mxCell id="1" parent="0" />
        <mxCell id="QQP8u670wKRUMt2climL-28" value="" style="rounded=0;whiteSpace=wrap;html=1;" vertex="1" parent="1">
          <mxGeometry x="32.5" y="160" width="120" height="225" as="geometry" />
        </mxCell>
        <mxCell id="QQP8u670wKRUMt2climL-5" value="" style="rounded=0;whiteSpace=wrap;html=1;" vertex="1" parent="1">
          <mxGeometry x="200" y="450" width="440" height="150" as="geometry" />
        </mxCell>
        <mxCell id="QQP8u670wKRUMt2climL-3" value="" style="rounded=0;whiteSpace=wrap;html=1;" vertex="1" parent="1">
          <mxGeometry x="200" y="160" width="440" height="290" as="geometry" />
        </mxCell>
        <mxCell id="QQP8u670wKRUMt2climL-16" style="edgeStyle=orthogonalEdgeStyle;rounded=0;orthogonalLoop=1;jettySize=auto;html=1;entryX=0;entryY=0.5;entryDx=0;entryDy=0;" edge="1" parent="1" source="QQP8u670wKRUMt2climL-1" target="QQP8u670wKRUMt2climL-15">
          <mxGeometry relative="1" as="geometry" />
        </mxCell>
        <mxCell id="QQP8u670wKRUMt2climL-1" value="이용자" style="shape=umlActor;verticalLabelPosition=bottom;verticalAlign=top;html=1;outlineConnect=0;" vertex="1" parent="1">
          <mxGeometry x="70" y="200" width="45" height="90" as="geometry" />
        </mxCell>
        <mxCell id="QQP8u670wKRUMt2climL-12" style="edgeStyle=orthogonalEdgeStyle;rounded=0;orthogonalLoop=1;jettySize=auto;html=1;entryX=1;entryY=0.5;entryDx=0;entryDy=0;" edge="1" parent="1" source="QQP8u670wKRUMt2climL-2" target="QQP8u670wKRUMt2climL-9">
          <mxGeometry relative="1" as="geometry" />
        </mxCell>
        <mxCell id="QQP8u670wKRUMt2climL-20" style="edgeStyle=orthogonalEdgeStyle;rounded=0;orthogonalLoop=1;jettySize=auto;html=1;entryX=1;entryY=0.5;entryDx=0;entryDy=0;" edge="1" parent="1" source="QQP8u670wKRUMt2climL-2" target="QQP8u670wKRUMt2climL-18">
          <mxGeometry relative="1" as="geometry" />
        </mxCell>
        <mxCell id="QQP8u670wKRUMt2climL-23" style="edgeStyle=orthogonalEdgeStyle;rounded=0;orthogonalLoop=1;jettySize=auto;html=1;entryX=1;entryY=0.5;entryDx=0;entryDy=0;" edge="1" parent="1" source="QQP8u670wKRUMt2climL-2" target="QQP8u670wKRUMt2climL-22">
          <mxGeometry relative="1" as="geometry">
            <Array as="points">
              <mxPoint x="743" y="325" />
            </Array>
          </mxGeometry>
        </mxCell>
        <mxCell id="QQP8u670wKRUMt2climL-2" value="매장 관리자" style="shape=umlActor;verticalLabelPosition=middle;verticalAlign=middle;html=1;outlineConnect=0;labelPosition=right;align=left;" vertex="1" parent="1">
          <mxGeometry x="720" y="200" width="45" height="90" as="geometry" />
        </mxCell>
        <mxCell id="QQP8u670wKRUMt2climL-4" value="어플리케이션" style="text;html=1;strokeColor=none;fillColor=none;align=center;verticalAlign=middle;whiteSpace=wrap;rounded=0;fontStyle=1;fontSize=20;" vertex="1" parent="1">
          <mxGeometry x="200" y="160" width="130" height="30" as="geometry" />
        </mxCell>
        <mxCell id="QQP8u670wKRUMt2climL-7" value="서버" style="text;html=1;strokeColor=none;fillColor=none;align=center;verticalAlign=middle;whiteSpace=wrap;rounded=0;fontStyle=1;fontSize=20;" vertex="1" parent="1">
          <mxGeometry x="200" y="570" width="60" height="30" as="geometry" />
        </mxCell>
        <mxCell id="QQP8u670wKRUMt2climL-17" style="edgeStyle=orthogonalEdgeStyle;rounded=0;orthogonalLoop=1;jettySize=auto;html=1;entryX=0.5;entryY=1;entryDx=0;entryDy=0;" edge="1" parent="1" source="QQP8u670wKRUMt2climL-8" target="QQP8u670wKRUMt2climL-15">
          <mxGeometry relative="1" as="geometry" />
        </mxCell>
        <mxCell id="QQP8u670wKRUMt2climL-8" value="매장 재고 DB" style="rounded=1;whiteSpace=wrap;html=1;" vertex="1" parent="1">
          <mxGeometry x="220" y="480" width="160" height="60" as="geometry" />
        </mxCell>
        <mxCell id="QQP8u670wKRUMt2climL-13" style="edgeStyle=orthogonalEdgeStyle;rounded=0;orthogonalLoop=1;jettySize=auto;html=1;entryX=1;entryY=0.5;entryDx=0;entryDy=0;" edge="1" parent="1" source="QQP8u670wKRUMt2climL-9" target="QQP8u670wKRUMt2climL-8">
          <mxGeometry relative="1" as="geometry" />
        </mxCell>
        <mxCell id="QQP8u670wKRUMt2climL-9" value="재고 관리" style="rounded=1;whiteSpace=wrap;html=1;" vertex="1" parent="1">
          <mxGeometry x="450" y="380" width="166" height="60" as="geometry" />
        </mxCell>
        <mxCell id="QQP8u670wKRUMt2climL-14" value="업데이트" style="text;html=1;strokeColor=none;fillColor=none;align=center;verticalAlign=middle;whiteSpace=wrap;rounded=0;" vertex="1" parent="1">
          <mxGeometry x="354" y="400" width="60" height="30" as="geometry" />
        </mxCell>
        <mxCell id="QQP8u670wKRUMt2climL-19" style="edgeStyle=orthogonalEdgeStyle;rounded=0;orthogonalLoop=1;jettySize=auto;html=1;entryX=0;entryY=0.5;entryDx=0;entryDy=0;" edge="1" parent="1" source="QQP8u670wKRUMt2climL-15" target="QQP8u670wKRUMt2climL-18">
          <mxGeometry relative="1" as="geometry" />
        </mxCell>
        <mxCell id="QQP8u670wKRUMt2climL-15" value="원하는 물품 선택" style="rounded=1;whiteSpace=wrap;html=1;" vertex="1" parent="1">
          <mxGeometry x="220" y="215" width="160" height="60" as="geometry" />
        </mxCell>
        <mxCell id="QQP8u670wKRUMt2climL-30" style="edgeStyle=orthogonalEdgeStyle;rounded=0;orthogonalLoop=1;jettySize=auto;html=1;entryX=1;entryY=0.75;entryDx=0;entryDy=0;" edge="1" parent="1" source="QQP8u670wKRUMt2climL-18" target="QQP8u670wKRUMt2climL-28">
          <mxGeometry relative="1" as="geometry">
            <Array as="points">
              <mxPoint x="533" y="290" />
              <mxPoint x="320" y="290" />
              <mxPoint x="320" y="329" />
            </Array>
          </mxGeometry>
        </mxCell>
        <mxCell id="QQP8u670wKRUMt2climL-18" value="배송 요청" style="rounded=1;whiteSpace=wrap;html=1;" vertex="1" parent="1">
          <mxGeometry x="450" y="215" width="166" height="60" as="geometry" />
        </mxCell>
        <mxCell id="QQP8u670wKRUMt2climL-21" value="배송 거절및 확정" style="text;html=1;strokeColor=none;fillColor=none;align=center;verticalAlign=middle;whiteSpace=wrap;rounded=0;" vertex="1" parent="1">
          <mxGeometry x="640" y="215" width="60" height="30" as="geometry" />
        </mxCell>
        <mxCell id="QQP8u670wKRUMt2climL-24" style="edgeStyle=orthogonalEdgeStyle;rounded=0;orthogonalLoop=1;jettySize=auto;html=1;entryX=0.75;entryY=1;entryDx=0;entryDy=0;" edge="1" parent="1" source="QQP8u670wKRUMt2climL-22" target="QQP8u670wKRUMt2climL-15">
          <mxGeometry relative="1" as="geometry" />
        </mxCell>
        <mxCell id="QQP8u670wKRUMt2climL-22" value="배송 설정&lt;br&gt;(무게, 배달료 등)" style="rounded=1;whiteSpace=wrap;html=1;" vertex="1" parent="1">
          <mxGeometry x="450" y="300" width="170" height="50" as="geometry" />
        </mxCell>
        <mxCell id="QQP8u670wKRUMt2climL-29" value="" style="triangle;whiteSpace=wrap;html=1;rotation=-90;" vertex="1" parent="1">
          <mxGeometry x="65" y="55" width="60" height="160" as="geometry" />
        </mxCell>
        <mxCell id="QQP8u670wKRUMt2climL-31" value="배달" style="text;html=1;strokeColor=none;fillColor=none;align=center;verticalAlign=middle;whiteSpace=wrap;rounded=0;" vertex="1" parent="1">
          <mxGeometry x="200" y="330" width="60" height="30" as="geometry" />
        </mxCell>
      </root>
    </mxGraphModel>
  </diagram>
</mxfile>
